<?xml version="1.0" encoding="UTF-8" standalone="no"?>
<!DOCTYPE svg PUBLIC "-//W3C//DTD SVG 1.1//EN" "http://www.w3.org/Graphics/SVG/1.1/DTD/svg11.dtd">
<svg width="100%" height="100%" viewBox="0 0 1000 1000" version="1.1" xmlns="http://www.w3.org/2000/svg" xmlns:xlink="http://www.w3.org/1999/xlink" xml:space="preserve" xmlns:serif="http://www.serif.com/" style="fill-rule:evenodd;clip-rule:evenodd;stroke-linejoin:round;stroke-miterlimit:2;">
    <g transform="matrix(1,0,0,1,-2.27374e-13,135.952)">
        <g transform="matrix(3.75012,0,0,3.75012,18.7574,-194.157)">
            <g id="T" transform="matrix(1.71026,0,0,1.71026,-652.459,-718.422)">
                <path d="M479.978,519.617L485.097,528.144L510.123,485.224L527.889,485.21L532.629,477.87L513.586,477.87L523.488,462.178L514.217,462.178L504.242,477.87L490.568,477.883L486.163,485.216L500.375,485.214L479.978,519.617Z" style="fill:rgb(130,170,255);"/>
            </g>
            <g id="W" transform="matrix(1.71026,0,0,1.71026,-652.459,-718.422)">
                <path d="M439.762,507.734L451.759,527.73L491.02,462.22L480.895,462.22L451.95,512.685L444.514,499.564L439.762,507.734Z" style="fill:rgb(130,170,255);"/>
                <path d="M380.435,461.465L419.712,526.629L458.691,462.06L448.701,462.06L419.938,510.277L393.612,468.351L416.403,468.107L425.666,483.586L430.825,475.414L422.731,461.369L380.435,461.465Z" style="fill:rgb(130,170,255);"/>
            </g>
        </g>
        <g transform="matrix(2.69109,0,0,2.69109,-1074.39,-983.287)">
            <g transform="matrix(50,0,0,50,406.638,609.159)">
                <path d="M0.193,-0C0.183,-0 0.175,-0.003 0.17,-0.009C0.164,-0.014 0.16,-0.021 0.158,-0.03L0.039,-0.671C0.039,-0.673 0.039,-0.675 0.039,-0.676C0.038,-0.677 0.038,-0.678 0.038,-0.679C0.038,-0.685 0.04,-0.69 0.045,-0.694C0.049,-0.698 0.054,-0.7 0.059,-0.7L0.147,-0.7C0.164,-0.7 0.173,-0.693 0.175,-0.68L0.258,-0.227L0.348,-0.52C0.35,-0.525 0.354,-0.531 0.359,-0.537C0.364,-0.542 0.371,-0.545 0.381,-0.545L0.435,-0.545C0.446,-0.545 0.453,-0.542 0.458,-0.537C0.463,-0.531 0.466,-0.525 0.467,-0.52L0.558,-0.228L0.641,-0.68C0.643,-0.693 0.652,-0.7 0.669,-0.7L0.757,-0.7C0.762,-0.7 0.767,-0.698 0.771,-0.694C0.775,-0.69 0.777,-0.685 0.777,-0.679L0.777,-0.676C0.777,-0.675 0.777,-0.673 0.776,-0.671L0.657,-0.03C0.656,-0.021 0.652,-0.014 0.646,-0.009C0.64,-0.003 0.632,-0 0.622,-0L0.555,-0C0.545,-0 0.537,-0.003 0.532,-0.008C0.526,-0.013 0.522,-0.019 0.52,-0.025L0.408,-0.359L0.296,-0.025C0.293,-0.019 0.289,-0.013 0.284,-0.008C0.279,-0.003 0.271,-0 0.26,-0L0.193,-0Z" style="fill:rgb(130,170,255);fill-rule:nonzero;"/>
            </g>
            <g transform="matrix(50,0,0,50,447.438,609.159)">
                <path d="M0.09,-0C0.083,-0 0.078,-0.002 0.073,-0.007C0.068,-0.012 0.066,-0.017 0.066,-0.024L0.066,-0.496C0.066,-0.503 0.068,-0.508 0.073,-0.513C0.078,-0.518 0.083,-0.52 0.09,-0.52L0.173,-0.52C0.18,-0.52 0.186,-0.518 0.191,-0.513C0.195,-0.508 0.197,-0.503 0.197,-0.496L0.197,-0.024C0.197,-0.017 0.195,-0.012 0.191,-0.007C0.186,-0.002 0.18,-0 0.173,-0L0.09,-0ZM0.086,-0.606C0.079,-0.606 0.074,-0.608 0.069,-0.613C0.064,-0.618 0.062,-0.623 0.062,-0.63L0.062,-0.702C0.062,-0.709 0.064,-0.714 0.069,-0.719C0.074,-0.724 0.079,-0.726 0.086,-0.726L0.177,-0.726C0.184,-0.726 0.19,-0.724 0.195,-0.719C0.2,-0.714 0.202,-0.709 0.202,-0.702L0.202,-0.63C0.202,-0.623 0.2,-0.618 0.195,-0.613C0.19,-0.608 0.184,-0.606 0.177,-0.606L0.086,-0.606Z" style="fill:rgb(130,170,255);fill-rule:nonzero;"/>
            </g>
            <g transform="matrix(50,0,0,50,460.638,609.159)">
                <path d="M0.091,-0C0.084,-0 0.079,-0.002 0.074,-0.007C0.069,-0.012 0.067,-0.017 0.067,-0.024L0.067,-0.686C0.067,-0.693 0.069,-0.698 0.074,-0.703C0.079,-0.708 0.084,-0.71 0.091,-0.71L0.174,-0.71C0.181,-0.71 0.186,-0.708 0.191,-0.703C0.196,-0.698 0.198,-0.693 0.198,-0.686L0.198,-0.024C0.198,-0.017 0.196,-0.012 0.191,-0.007C0.186,-0.002 0.181,-0 0.174,-0L0.091,-0Z" style="fill:rgb(130,170,255);fill-rule:nonzero;"/>
            </g>
            <g transform="matrix(50,0,0,50,473.888,609.159)">
                <path d="M0.259,0.01C0.224,0.01 0.194,0.004 0.168,-0.008C0.141,-0.019 0.119,-0.036 0.102,-0.057C0.085,-0.078 0.071,-0.103 0.062,-0.133C0.053,-0.162 0.047,-0.193 0.046,-0.228C0.045,-0.24 0.045,-0.251 0.045,-0.261C0.045,-0.27 0.045,-0.281 0.046,-0.293C0.047,-0.326 0.053,-0.357 0.062,-0.386C0.07,-0.415 0.084,-0.44 0.102,-0.462C0.119,-0.483 0.141,-0.5 0.168,-0.512C0.194,-0.524 0.224,-0.53 0.259,-0.53C0.295,-0.53 0.326,-0.524 0.35,-0.511C0.376,-0.499 0.396,-0.483 0.413,-0.464L0.413,-0.686C0.413,-0.693 0.415,-0.698 0.42,-0.703C0.424,-0.708 0.43,-0.71 0.437,-0.71L0.522,-0.71C0.529,-0.71 0.534,-0.708 0.539,-0.703C0.544,-0.698 0.546,-0.693 0.546,-0.686L0.546,-0.024C0.546,-0.017 0.544,-0.012 0.539,-0.007C0.534,-0.002 0.529,-0 0.522,-0L0.443,-0C0.436,-0 0.43,-0.002 0.426,-0.007C0.421,-0.012 0.419,-0.017 0.419,-0.024L0.419,-0.061C0.402,-0.04 0.381,-0.023 0.356,-0.01C0.33,0.003 0.298,0.01 0.259,0.01ZM0.296,-0.097C0.324,-0.097 0.346,-0.103 0.363,-0.116C0.38,-0.129 0.392,-0.145 0.4,-0.165C0.408,-0.184 0.412,-0.204 0.413,-0.225C0.414,-0.237 0.414,-0.25 0.414,-0.264C0.414,-0.277 0.414,-0.29 0.413,-0.302C0.412,-0.322 0.408,-0.341 0.399,-0.36C0.39,-0.378 0.378,-0.393 0.361,-0.405C0.344,-0.417 0.323,-0.423 0.296,-0.423C0.268,-0.423 0.246,-0.417 0.23,-0.405C0.213,-0.392 0.201,-0.376 0.194,-0.356C0.187,-0.336 0.182,-0.314 0.181,-0.29C0.18,-0.27 0.18,-0.25 0.181,-0.23C0.182,-0.206 0.187,-0.184 0.194,-0.164C0.201,-0.144 0.213,-0.128 0.23,-0.116C0.246,-0.103 0.268,-0.097 0.296,-0.097Z" style="fill:rgb(130,170,255);fill-rule:nonzero;"/>
            </g>
            <g transform="matrix(50,0,0,50,504.538,609.159)">
                <path d="M0.208,-0C0.199,-0 0.192,-0.002 0.187,-0.007C0.182,-0.012 0.178,-0.018 0.175,-0.025L0.032,-0.489C0.031,-0.492 0.031,-0.495 0.031,-0.498C0.031,-0.504 0.033,-0.509 0.038,-0.514C0.042,-0.518 0.047,-0.52 0.052,-0.52L0.126,-0.52C0.134,-0.52 0.14,-0.518 0.145,-0.514C0.15,-0.509 0.152,-0.505 0.153,-0.501L0.251,-0.17L0.355,-0.498C0.356,-0.503 0.359,-0.507 0.364,-0.513C0.369,-0.518 0.376,-0.52 0.385,-0.52L0.435,-0.52C0.444,-0.52 0.451,-0.518 0.456,-0.513C0.461,-0.507 0.464,-0.503 0.465,-0.498L0.569,-0.17L0.667,-0.501C0.668,-0.505 0.67,-0.509 0.675,-0.514C0.679,-0.518 0.685,-0.52 0.693,-0.52L0.767,-0.52C0.773,-0.52 0.778,-0.518 0.783,-0.514C0.787,-0.509 0.789,-0.504 0.789,-0.498C0.789,-0.495 0.788,-0.492 0.787,-0.489L0.644,-0.025C0.642,-0.018 0.639,-0.012 0.633,-0.007C0.628,-0.002 0.621,-0 0.612,-0L0.547,-0C0.538,-0 0.531,-0.002 0.526,-0.007C0.52,-0.012 0.516,-0.018 0.514,-0.025L0.41,-0.341L0.306,-0.025C0.303,-0.018 0.3,-0.012 0.295,-0.007C0.29,-0.002 0.282,-0 0.272,-0L0.208,-0Z" style="fill:rgb(130,170,255);fill-rule:nonzero;"/>
            </g>
            <g transform="matrix(50,0,0,50,544.788,609.159)">
                <path d="M0.296,0.01C0.243,0.01 0.198,0.001 0.162,-0.018C0.125,-0.037 0.098,-0.063 0.079,-0.097C0.059,-0.131 0.049,-0.171 0.046,-0.216C0.045,-0.228 0.045,-0.243 0.045,-0.26C0.045,-0.277 0.045,-0.292 0.046,-0.304C0.049,-0.35 0.06,-0.39 0.08,-0.424C0.099,-0.457 0.127,-0.483 0.164,-0.502C0.2,-0.521 0.244,-0.53 0.296,-0.53C0.348,-0.53 0.392,-0.521 0.429,-0.502C0.465,-0.483 0.493,-0.457 0.513,-0.424C0.532,-0.39 0.543,-0.35 0.546,-0.304C0.547,-0.292 0.547,-0.277 0.547,-0.26C0.547,-0.243 0.547,-0.228 0.546,-0.216C0.543,-0.171 0.533,-0.131 0.514,-0.097C0.495,-0.063 0.467,-0.037 0.431,-0.018C0.394,0.001 0.349,0.01 0.296,0.01ZM0.296,-0.089C0.331,-0.089 0.359,-0.1 0.378,-0.123C0.397,-0.145 0.408,-0.178 0.41,-0.221C0.411,-0.231 0.411,-0.244 0.411,-0.26C0.411,-0.276 0.411,-0.289 0.41,-0.299C0.408,-0.342 0.397,-0.375 0.378,-0.398C0.359,-0.42 0.331,-0.431 0.296,-0.431C0.261,-0.431 0.233,-0.42 0.214,-0.398C0.195,-0.375 0.184,-0.342 0.182,-0.299C0.181,-0.289 0.181,-0.276 0.181,-0.26C0.181,-0.244 0.181,-0.231 0.182,-0.221C0.184,-0.178 0.195,-0.145 0.214,-0.123C0.233,-0.1 0.261,-0.089 0.296,-0.089Z" style="fill:rgb(130,170,255);fill-rule:nonzero;"/>
            </g>
            <g transform="matrix(50,0,0,50,574.388,609.159)">
                <path d="M0.296,0.01C0.243,0.01 0.198,0.001 0.162,-0.018C0.125,-0.037 0.098,-0.063 0.079,-0.097C0.059,-0.131 0.049,-0.171 0.046,-0.216C0.045,-0.228 0.045,-0.243 0.045,-0.26C0.045,-0.277 0.045,-0.292 0.046,-0.304C0.049,-0.35 0.06,-0.39 0.08,-0.424C0.099,-0.457 0.127,-0.483 0.164,-0.502C0.2,-0.521 0.244,-0.53 0.296,-0.53C0.348,-0.53 0.392,-0.521 0.429,-0.502C0.465,-0.483 0.493,-0.457 0.513,-0.424C0.532,-0.39 0.543,-0.35 0.546,-0.304C0.547,-0.292 0.547,-0.277 0.547,-0.26C0.547,-0.243 0.547,-0.228 0.546,-0.216C0.543,-0.171 0.533,-0.131 0.514,-0.097C0.495,-0.063 0.467,-0.037 0.431,-0.018C0.394,0.001 0.349,0.01 0.296,0.01ZM0.296,-0.089C0.331,-0.089 0.359,-0.1 0.378,-0.123C0.397,-0.145 0.408,-0.178 0.41,-0.221C0.411,-0.231 0.411,-0.244 0.411,-0.26C0.411,-0.276 0.411,-0.289 0.41,-0.299C0.408,-0.342 0.397,-0.375 0.378,-0.398C0.359,-0.42 0.331,-0.431 0.296,-0.431C0.261,-0.431 0.233,-0.42 0.214,-0.398C0.195,-0.375 0.184,-0.342 0.182,-0.299C0.181,-0.289 0.181,-0.276 0.181,-0.26C0.181,-0.244 0.181,-0.231 0.182,-0.221C0.184,-0.178 0.195,-0.145 0.214,-0.123C0.233,-0.1 0.261,-0.089 0.296,-0.089Z" style="fill:rgb(130,170,255);fill-rule:nonzero;"/>
            </g>
            <g transform="matrix(50,0,0,50,603.988,609.159)">
                <path d="M0.259,0.01C0.224,0.01 0.194,0.004 0.168,-0.008C0.141,-0.019 0.119,-0.036 0.102,-0.057C0.085,-0.078 0.071,-0.103 0.062,-0.133C0.053,-0.162 0.047,-0.193 0.046,-0.228C0.045,-0.24 0.045,-0.251 0.045,-0.261C0.045,-0.27 0.045,-0.281 0.046,-0.293C0.047,-0.326 0.053,-0.357 0.062,-0.386C0.07,-0.415 0.084,-0.44 0.102,-0.462C0.119,-0.483 0.141,-0.5 0.168,-0.512C0.194,-0.524 0.224,-0.53 0.259,-0.53C0.295,-0.53 0.326,-0.524 0.35,-0.511C0.376,-0.499 0.396,-0.483 0.413,-0.464L0.413,-0.686C0.413,-0.693 0.415,-0.698 0.42,-0.703C0.424,-0.708 0.43,-0.71 0.437,-0.71L0.522,-0.71C0.529,-0.71 0.534,-0.708 0.539,-0.703C0.544,-0.698 0.546,-0.693 0.546,-0.686L0.546,-0.024C0.546,-0.017 0.544,-0.012 0.539,-0.007C0.534,-0.002 0.529,-0 0.522,-0L0.443,-0C0.436,-0 0.43,-0.002 0.426,-0.007C0.421,-0.012 0.419,-0.017 0.419,-0.024L0.419,-0.061C0.402,-0.04 0.381,-0.023 0.356,-0.01C0.33,0.003 0.298,0.01 0.259,0.01ZM0.296,-0.097C0.324,-0.097 0.346,-0.103 0.363,-0.116C0.38,-0.129 0.392,-0.145 0.4,-0.165C0.408,-0.184 0.412,-0.204 0.413,-0.225C0.414,-0.237 0.414,-0.25 0.414,-0.264C0.414,-0.277 0.414,-0.29 0.413,-0.302C0.412,-0.322 0.408,-0.341 0.399,-0.36C0.39,-0.378 0.378,-0.393 0.361,-0.405C0.344,-0.417 0.323,-0.423 0.296,-0.423C0.268,-0.423 0.246,-0.417 0.23,-0.405C0.213,-0.392 0.201,-0.376 0.194,-0.356C0.187,-0.336 0.182,-0.314 0.181,-0.29C0.18,-0.27 0.18,-0.25 0.181,-0.23C0.182,-0.206 0.187,-0.184 0.194,-0.164C0.201,-0.144 0.213,-0.128 0.23,-0.116C0.246,-0.103 0.268,-0.097 0.296,-0.097Z" style="fill:rgb(130,170,255);fill-rule:nonzero;"/>
            </g>
            <g transform="matrix(50,0,0,50,633.738,609.159)">
                <path d="M0.256,-0C0.249,-0 0.244,-0.002 0.239,-0.007C0.234,-0.012 0.232,-0.017 0.232,-0.024L0.232,-0.577L0.047,-0.577C0.04,-0.577 0.035,-0.579 0.03,-0.584C0.025,-0.589 0.023,-0.594 0.023,-0.601L0.023,-0.675C0.023,-0.682 0.025,-0.688 0.03,-0.693C0.035,-0.698 0.04,-0.7 0.047,-0.7L0.557,-0.7C0.564,-0.7 0.57,-0.698 0.575,-0.693C0.58,-0.688 0.582,-0.682 0.582,-0.675L0.582,-0.601C0.582,-0.594 0.58,-0.589 0.575,-0.584C0.57,-0.579 0.564,-0.577 0.557,-0.577L0.373,-0.577L0.373,-0.024C0.373,-0.017 0.371,-0.012 0.366,-0.007C0.361,-0.002 0.355,-0 0.348,-0L0.256,-0Z" style="fill:rgb(130,170,255);fill-rule:nonzero;"/>
            </g>
            <g transform="matrix(50,0,0,50,663.988,609.159)">
                <path d="M0.102,-0C0.095,-0 0.09,-0.002 0.085,-0.007C0.08,-0.012 0.078,-0.017 0.078,-0.024L0.078,-0.675C0.078,-0.682 0.08,-0.688 0.085,-0.693C0.09,-0.698 0.095,-0.7 0.102,-0.7L0.542,-0.7C0.549,-0.7 0.555,-0.698 0.56,-0.693C0.565,-0.688 0.567,-0.682 0.567,-0.675L0.567,-0.609C0.567,-0.602 0.565,-0.597 0.56,-0.592C0.555,-0.587 0.549,-0.585 0.542,-0.585L0.213,-0.585L0.213,-0.408L0.52,-0.408C0.527,-0.408 0.533,-0.406 0.538,-0.402C0.543,-0.397 0.545,-0.391 0.545,-0.384L0.545,-0.322C0.545,-0.315 0.543,-0.309 0.538,-0.305C0.533,-0.3 0.527,-0.298 0.52,-0.298L0.213,-0.298L0.213,-0.115L0.55,-0.115C0.557,-0.115 0.563,-0.113 0.568,-0.108C0.573,-0.103 0.575,-0.097 0.575,-0.09L0.575,-0.024C0.575,-0.017 0.573,-0.012 0.568,-0.007C0.563,-0.002 0.557,-0 0.55,-0L0.102,-0Z" style="fill:rgb(130,170,255);fill-rule:nonzero;"/>
            </g>
            <g transform="matrix(50,0,0,50,694.788,609.159)">
                <path d="M0.348,0.01C0.286,0.01 0.234,-0.001 0.191,-0.023C0.148,-0.044 0.115,-0.075 0.092,-0.116C0.069,-0.156 0.057,-0.204 0.054,-0.261C0.053,-0.288 0.053,-0.318 0.053,-0.349C0.053,-0.38 0.053,-0.41 0.054,-0.439C0.057,-0.495 0.07,-0.543 0.093,-0.584C0.116,-0.625 0.149,-0.656 0.192,-0.678C0.234,-0.699 0.287,-0.71 0.348,-0.71C0.393,-0.71 0.434,-0.704 0.47,-0.692C0.506,-0.68 0.537,-0.664 0.562,-0.643C0.587,-0.622 0.607,-0.597 0.621,-0.569C0.635,-0.541 0.642,-0.511 0.643,-0.478C0.644,-0.472 0.642,-0.467 0.637,-0.463C0.633,-0.459 0.628,-0.457 0.622,-0.457L0.527,-0.457C0.52,-0.457 0.514,-0.459 0.509,-0.463C0.504,-0.466 0.501,-0.472 0.499,-0.481C0.488,-0.525 0.47,-0.555 0.444,-0.571C0.418,-0.587 0.386,-0.595 0.347,-0.595C0.302,-0.595 0.267,-0.583 0.24,-0.558C0.213,-0.533 0.199,-0.491 0.197,-0.434C0.195,-0.379 0.195,-0.323 0.197,-0.266C0.199,-0.209 0.213,-0.168 0.24,-0.142C0.267,-0.117 0.302,-0.105 0.347,-0.105C0.386,-0.105 0.418,-0.113 0.445,-0.13C0.471,-0.146 0.489,-0.176 0.499,-0.219C0.501,-0.228 0.504,-0.235 0.509,-0.238C0.514,-0.241 0.52,-0.243 0.527,-0.243L0.622,-0.243C0.628,-0.243 0.633,-0.241 0.637,-0.237C0.642,-0.233 0.644,-0.228 0.643,-0.222C0.642,-0.189 0.635,-0.159 0.621,-0.131C0.607,-0.103 0.587,-0.079 0.562,-0.058C0.537,-0.037 0.506,-0.02 0.47,-0.008C0.434,0.004 0.393,0.01 0.348,0.01Z" style="fill:rgb(130,170,255);fill-rule:nonzero;"/>
            </g>
            <g transform="matrix(50,0,0,50,728.988,609.159)">
                <path d="M0.102,-0C0.095,-0 0.09,-0.002 0.085,-0.007C0.08,-0.011 0.078,-0.017 0.078,-0.024L0.078,-0.675C0.078,-0.682 0.08,-0.688 0.085,-0.693C0.09,-0.698 0.095,-0.7 0.102,-0.7L0.193,-0.7C0.2,-0.7 0.206,-0.698 0.211,-0.693C0.215,-0.688 0.217,-0.682 0.217,-0.675L0.217,-0.417L0.512,-0.417L0.512,-0.675C0.512,-0.682 0.514,-0.688 0.519,-0.693C0.524,-0.698 0.529,-0.7 0.536,-0.7L0.626,-0.7C0.633,-0.7 0.639,-0.698 0.644,-0.693C0.649,-0.688 0.651,-0.682 0.651,-0.675L0.651,-0.024C0.651,-0.017 0.649,-0.012 0.644,-0.007C0.639,-0.002 0.633,-0 0.626,-0L0.536,-0C0.529,-0 0.524,-0.002 0.519,-0.007C0.514,-0.012 0.512,-0.017 0.512,-0.024L0.512,-0.292L0.217,-0.292L0.217,-0.024C0.217,-0.017 0.215,-0.012 0.211,-0.007C0.206,-0.002 0.2,-0 0.193,-0L0.102,-0Z" style="fill:rgb(130,170,255);fill-rule:nonzero;"/>
            </g>
        </g>
    </g>
</svg>
