<?xml version="1.0" standalone="no"?>
<!DOCTYPE svg PUBLIC "-//W3C//DTD SVG 20010904//EN"
 "http://www.w3.org/TR/2001/REC-SVG-20010904/DTD/svg10.dtd">
<svg version="1.0" xmlns="http://www.w3.org/2000/svg"
 width="260.000000pt" height="260.000000pt" viewBox="0 0 260.000000 260.000000"
 preserveAspectRatio="xMidYMid meet">
<metadata>
Created by potrace 1.14, written by Peter Selinger 2001-2017
</metadata>
<g transform="translate(0.000000,260.000000) scale(0.100000,-0.100000)"
fill="#000000" stroke="none">
<path d="M10 1863 c0 -1 98 -165 218 -363 119 -198 226 -375 236 -393 10 -18
26 -44 35 -59 180 -299 173 -289 186 -271 7 10 149 245 317 523 167 278 312
516 321 530 l16 25 -86 0 -87 0 -232 -390 c-128 -214 -238 -398 -246 -408 -12
-16 -33 15 -208 295 -107 172 -207 331 -222 353 l-26 40 181 5 c100 3 188 3
195 1 6 -2 42 -53 79 -115 36 -61 72 -119 79 -129 11 -17 16 -12 54 52 l42 71
-38 67 c-21 38 -47 82 -56 98 -10 17 -23 40 -30 53 l-11 22 -359 -2 c-197 -2
-358 -4 -358 -5z"/>
<path d="M1724 1850 c-9 -3 -37 -43 -62 -87 -448 -783 -436 -765 -452 -742
-16 23 -82 138 -102 177 -11 21 -13 19 -50 -43 -21 -37 -38 -70 -38 -75 0 -13
191 -330 199 -330 3 0 146 233 316 517 171 284 320 532 332 550 l22 33 -37 1
c-20 1 -54 2 -75 3 -21 0 -45 -1 -53 -4z"/>
<path d="M2289 1852 c-8 -2 -50 -61 -94 -132 l-80 -130 -75 -1 c-41 0 -94 0
-116 1 -40 1 -43 0 -78 -57 -20 -31 -36 -61 -36 -66 0 -4 50 -7 110 -6 61 1
113 -1 115 -3 3 -2 -72 -134 -166 -292 l-171 -287 42 -71 c23 -38 46 -66 50
-61 8 7 166 274 225 378 52 94 187 321 193 327 4 4 74 8 155 9 l148 1 39 58
c22 33 40 61 40 63 0 2 -61 5 -135 5 -74 0 -146 1 -159 1 -24 1 -21 7 53 124
42 67 80 127 83 132 6 9 -106 15 -143 7z"/>
</g>
</svg>
